<svg width="1920" height="482" viewBox="0 0 1920 482" fill="none" xmlns="http://www.w3.org/2000/svg">
<g filter="url(#filter0_d_6_697)">
<path d="M1407.3 49.2857L1453.91 3L1500.52 49.2857L1547.13 3L1593.74 49.2857L1640.35 3L1686.96 49.2857L1733.56 3L1780.17 49.2857L1826.78 3L1873.39 49.2857L1920 3M1407.3 118.714L1453.91 72.4286L1500.52 118.714L1547.13 72.4286L1593.74 118.714L1640.35 72.4286L1686.96 118.714L1733.56 72.4286L1780.17 118.714L1826.78 72.4286L1873.39 118.714L1920 72.4286M1407.3 185.571L1453.91 139.286L1500.52 185.571L1547.13 139.286L1593.74 185.571L1640.35 139.286L1686.96 185.571L1733.56 139.286L1780.17 185.571L1826.78 139.286L1873.39 185.571L1920 139.286M1407.3 255L1453.91 208.714L1500.52 255L1547.13 208.714L1593.74 255L1640.35 208.714L1686.96 255L1733.56 208.714L1780.17 255L1826.78 208.714L1873.39 255L1920 208.714M1407.3 324.429L1453.91 278.143L1500.52 324.429L1547.13 278.143L1593.74 324.429L1640.35 278.143L1686.96 324.429L1733.56 278.143L1780.17 324.429L1826.78 278.143L1873.39 324.429L1920 278.143M1407.3 391.286L1453.91 347.571L1500.52 391.286L1547.13 347.571L1593.74 391.286L1640.35 347.571L1686.96 391.286L1733.56 347.571L1780.17 391.286L1826.78 347.571L1873.39 391.286L1920 347.571M1407.3 460.714L1453.91 414.429L1500.52 460.714L1547.13 414.429L1593.74 460.714L1640.35 414.429L1686.96 460.714L1733.56 414.429L1780.17 460.714L1826.78 414.429L1873.39 460.714L1920 414.429M939.074 51.8571L985.682 5.57143L1032.29 51.8571L1078.9 5.57143L1125.51 51.8571L1172.12 5.57143L1218.73 51.8571L1265.34 5.57143L1311.94 51.8571L1358.55 5.57143L1405.16 51.8571L1451.77 5.57143M939.074 121.286L985.682 75L1032.29 121.286L1078.9 75L1125.51 121.286L1172.12 75L1218.73 121.286L1265.34 75L1311.94 121.286L1358.55 75L1405.16 121.286L1451.77 75M939.074 188.143L985.682 141.857L1032.29 188.143L1078.9 141.857L1125.51 188.143L1172.12 141.857L1218.73 188.143L1265.34 141.857L1311.94 188.143L1358.55 141.857L1405.16 188.143L1451.77 141.857M939.074 257.571L985.682 211.286L1032.29 257.571L1078.9 211.286L1125.51 257.571L1172.12 211.286L1218.73 257.571L1265.34 211.286L1311.94 257.571L1358.55 211.286L1405.16 257.571L1451.77 211.286M939.074 327L985.682 280.714L1032.29 327L1078.9 280.714L1125.51 327L1172.12 280.714L1218.73 327L1265.34 280.714L1311.94 327L1358.55 280.714L1405.16 327L1451.77 280.714M939.074 393.857L985.682 350.143L1032.29 393.857L1078.9 350.143L1125.51 393.857L1172.12 350.143L1218.73 393.857L1265.34 350.143L1311.94 393.857L1358.55 350.143L1405.16 393.857L1451.77 350.143M939.074 463.286L985.682 417L1032.29 463.286L1078.9 417L1125.51 463.286L1172.12 417L1218.73 463.286L1265.34 417L1311.94 463.286L1358.55 417L1405.16 463.286L1451.77 417M468.229 57L514.838 10.7143L561.447 57L608.056 10.7143L654.664 57L701.273 10.7143L747.882 57L794.491 10.7143L841.1 57L887.709 10.7143L934.318 57L980.927 10.7143M468.229 126.429L514.838 80.1429L561.447 126.429L608.056 80.1429L654.664 126.429L701.273 80.1429L747.882 126.429L794.491 80.1429L841.1 126.429L887.709 80.1429L934.318 126.429L980.927 80.1429M468.229 193.286L514.838 147L561.447 193.286L608.056 147L654.664 193.286L701.273 147L747.882 193.286L794.491 147L841.1 193.286L887.709 147L934.318 193.286L980.927 147M468.229 262.714L514.838 216.429L561.447 262.714L608.056 216.429L654.664 262.714L701.273 216.429L747.882 262.714L794.491 216.429L841.1 262.714L887.709 216.429L934.318 262.714L980.927 216.429M468.229 332.143L514.838 285.857L561.447 332.143L608.056 285.857L654.664 332.143L701.273 285.857L747.882 332.143L794.491 285.857L841.1 332.143L887.709 285.857L934.318 332.143L980.927 285.857M468.229 399L514.838 355.286L561.447 399L608.056 355.286L654.664 399L701.273 355.286L747.882 399L794.491 355.286L841.1 399L887.709 355.286L934.318 399L980.927 355.286M468.229 468.429L514.838 422.143L561.447 468.429L608.056 422.143L654.664 468.429L701.273 422.143L747.882 468.429L794.491 422.143L841.1 468.429L887.709 422.143L934.318 468.429L980.927 422.143M0 59.5714L46.6089 13.2857L93.2177 59.5714L139.827 13.2857L186.435 59.5714L233.044 13.2857L279.653 59.5714L326.262 13.2857L372.871 59.5714L419.48 13.2857L466.089 59.5714L512.698 13.2857M0 129L46.6089 82.7143L93.2177 129L139.827 82.7143L186.435 129L233.044 82.7143L279.653 129L326.262 82.7143L372.871 129L419.48 82.7143L466.089 129L512.698 82.7143M0 195.857L46.6089 149.571L93.2177 195.857L139.827 149.571L186.435 195.857L233.044 149.571L279.653 195.857L326.262 149.571L372.871 195.857L419.48 149.571L466.089 195.857L512.698 149.571M0 265.286L46.6089 219L93.2177 265.286L139.827 219L186.435 265.286L233.044 219L279.653 265.286L326.262 219L372.871 265.286L419.48 219L466.089 265.286L512.698 219M0 334.714L46.6089 288.429L93.2177 334.714L139.827 288.429L186.435 334.714L233.044 288.429L279.653 334.714L326.262 288.429L372.871 334.714L419.48 288.429L466.089 334.714L512.698 288.429M0 401.571L46.6089 357.857L93.2177 401.571L139.827 357.857L186.435 401.571L233.044 357.857L279.653 401.571L326.262 357.857L372.871 401.571L419.48 357.857L466.089 401.571L512.698 357.857M0 471L46.6089 424.714L93.2177 471L139.827 424.714L186.435 471L233.044 424.714L279.653 471L326.262 424.714L372.871 471L419.48 424.714L466.089 471L512.698 424.714" stroke="#FF9900" stroke-opacity="0.2" stroke-width="3" stroke-linecap="round" shape-rendering="crispEdges"/>
</g>
<defs>
<filter id="filter0_d_6_697" x="-5.5" y="0.886047" width="1931" height="480.228" filterUnits="userSpaceOnUse" color-interpolation-filters="sRGB">
<feFlood flood-opacity="0" result="BackgroundImageFix"/>
<feColorMatrix in="SourceAlpha" type="matrix" values="0 0 0 0 0 0 0 0 0 0 0 0 0 0 0 0 0 0 127 0" result="hardAlpha"/>
<feOffset dy="4"/>
<feGaussianBlur stdDeviation="2"/>
<feComposite in2="hardAlpha" operator="out"/>
<feColorMatrix type="matrix" values="0 0 0 0 0 0 0 0 0 0 0 0 0 0 0 0 0 0 0.25 0"/>
<feBlend mode="normal" in2="BackgroundImageFix" result="effect1_dropShadow_6_697"/>
<feBlend mode="normal" in="SourceGraphic" in2="effect1_dropShadow_6_697" result="shape"/>
</filter>
</defs>
</svg>
